<svg width="241" height="92" viewBox="0 0 241 92" fill="none" xmlns="http://www.w3.org/2000/svg">
<g filter="url(#filter0_d)">
<rect x="20.1992" y="15.9048" width="200" height="51" fill="#E3B873"/>
</g>
<path d="M100.134 49.0088C98.7038 49.0088 97.5598 48.6231 96.7018 47.8518L97.1178 47.0328C97.5685 47.4141 98.0278 47.6871 98.4958 47.8518C98.9725 48.0165 99.5228 48.0988 100.147 48.0988C100.883 48.0988 101.451 47.9558 101.85 47.6698C102.248 47.3838 102.448 46.9808 102.448 46.4608C102.448 46.1575 102.352 45.9105 102.162 45.7198C101.971 45.5291 101.72 45.3775 101.408 45.2648C101.096 45.1521 100.675 45.0351 100.147 44.9138C99.4361 44.7491 98.8511 44.5758 98.3918 44.3938C97.9411 44.2118 97.5728 43.9518 97.2868 43.6138C97.0095 43.2758 96.8708 42.8338 96.8708 42.2878C96.8708 41.7678 97.0051 41.3085 97.2738 40.9098C97.5511 40.5025 97.9411 40.1905 98.4438 39.9738C98.9551 39.7485 99.5445 39.6358 100.212 39.6358C100.844 39.6358 101.434 39.7355 101.98 39.9348C102.534 40.1341 103.002 40.4201 103.384 40.7928L102.981 41.6118C102.547 41.2391 102.105 40.9705 101.655 40.8058C101.213 40.6325 100.732 40.5458 100.212 40.5458C99.5011 40.5458 98.9421 40.6975 98.5348 41.0008C98.1361 41.2955 97.9368 41.7115 97.9368 42.2488C97.9368 42.7081 98.1145 43.0548 98.4698 43.2888C98.8251 43.5228 99.3625 43.7221 100.082 43.8868C100.87 44.0775 101.49 44.2551 101.941 44.4198C102.391 44.5758 102.764 44.8141 103.059 45.1348C103.362 45.4555 103.514 45.8845 103.514 46.4218C103.514 46.9418 103.375 47.3968 103.098 47.7868C102.829 48.1768 102.439 48.4801 101.928 48.6968C101.416 48.9048 100.818 49.0088 100.134 49.0088ZM108.82 49.0088C107.624 49.0088 106.719 48.6968 106.103 48.0728C105.488 47.4488 105.18 46.5301 105.18 45.3168V39.7398H106.233V45.4078C106.233 46.3005 106.45 46.9721 106.883 47.4228C107.325 47.8735 107.971 48.0988 108.82 48.0988C109.67 48.0988 110.311 47.8735 110.744 47.4228C111.178 46.9721 111.394 46.3005 111.394 45.4078V39.7398H112.46V45.3168C112.46 46.5215 112.148 47.4401 111.524 48.0728C110.909 48.6968 110.008 49.0088 108.82 49.0088ZM119.852 44.1988C120.381 44.3375 120.788 44.5975 121.074 44.9788C121.369 45.3601 121.516 45.8368 121.516 46.4088C121.516 47.2148 121.252 47.8345 120.723 48.2678C120.195 48.6925 119.445 48.9048 118.474 48.9048H114.652V39.7398H118.331C119.276 39.7398 120.008 39.9478 120.528 40.3638C121.048 40.7798 121.308 41.3691 121.308 42.1318C121.308 42.6258 121.178 43.0505 120.918 43.4058C120.667 43.7611 120.312 44.0255 119.852 44.1988ZM115.705 43.8088H118.175C118.86 43.8088 119.376 43.6701 119.722 43.3928C120.078 43.1155 120.255 42.7125 120.255 42.1838C120.255 41.1438 119.562 40.6238 118.175 40.6238H115.705V43.8088ZM118.37 48.0208C119.09 48.0208 119.618 47.8908 119.956 47.6308C120.303 47.3621 120.476 46.9461 120.476 46.3828C120.476 45.2561 119.774 44.6928 118.37 44.6928H115.705V48.0208H118.37ZM132.07 39.7398V48.9048H131.095L131.108 41.8068L128.131 47.4488H127.377L124.387 41.8588L124.4 48.9048H123.412V39.7398H124.296L127.767 46.3828L131.199 39.7398H132.07ZM134.343 39.7398H135.409V48.9048H134.343V39.7398ZM139.879 40.6498H136.694V39.7398H144.156V40.6498H140.958V48.9048H139.879V40.6498Z" fill="white"/>
<defs>
<filter id="filter0_d" x="0.199203" y="0.904785" width="240" height="91" filterUnits="userSpaceOnUse" color-interpolation-filters="sRGB">
<feFlood flood-opacity="0" result="BackgroundImageFix"/>
<feColorMatrix in="SourceAlpha" type="matrix" values="0 0 0 0 0 0 0 0 0 0 0 0 0 0 0 0 0 0 127 0"/>
<feOffset dy="5"/>
<feGaussianBlur stdDeviation="10"/>
<feColorMatrix type="matrix" values="0 0 0 0 0.890196 0 0 0 0 0.721569 0 0 0 0 0.45098 0 0 0 0.1 0"/>
<feBlend mode="normal" in2="BackgroundImageFix" result="effect1_dropShadow"/>
<feBlend mode="normal" in="SourceGraphic" in2="effect1_dropShadow" result="shape"/>
</filter>
</defs>
</svg>
